<svg xmlns="http://www.w3.org/2000/svg" id="Layer_1" data-name="Layer 1" viewBox="0 0 614.22 200.29"><defs><style>      .cls-1 {        fill: #fff;      }      .cls-2 {        fill: #b5ff00;      }    </style></defs><g><path class="cls-2" d="M255.04,156.48v-22.07h-8.64v-3.13h20.84v3.13h-8.64v22.07h-3.56Z"></path><path class="cls-2" d="M279.33,156.7c-2.04,0-3.83-.42-5.38-1.26-1.55-.84-2.75-1.99-3.6-3.46-.85-1.46-1.28-3.14-1.28-5.04s.41-3.58,1.24-5.04,1.97-2.61,3.42-3.44c1.45-.83,3.09-1.24,4.91-1.24s3.48.41,4.9,1.22c1.41.82,2.53,1.96,3.33,3.44.8,1.48,1.21,3.2,1.21,5.17,0,.14,0,.31-.02.5-.01.19-.03.37-.05.54h-16.24v-2.48h14.44l-1.4.86c.02-1.22-.23-2.32-.76-3.28-.53-.96-1.26-1.71-2.18-2.25-.92-.54-2-.81-3.22-.81s-2.27.27-3.21.81c-.94.54-1.67,1.3-2.2,2.27-.53.97-.79,2.08-.79,3.33v.58c0,1.27.29,2.41.88,3.4.59,1,1.41,1.77,2.47,2.32,1.05.55,2.27.83,3.63.83,1.13,0,2.15-.19,3.08-.58s1.73-.96,2.43-1.73l1.91,2.23c-.86,1.01-1.94,1.78-3.22,2.3-1.29.53-2.72.79-4.3.79Z"></path><path class="cls-2" d="M303.35,156.7c-1.94,0-3.68-.42-5.2-1.26s-2.72-1.99-3.58-3.46c-.86-1.46-1.3-3.14-1.3-5.04s.43-3.58,1.3-5.04c.86-1.46,2.06-2.61,3.58-3.44s3.26-1.24,5.2-1.24c1.73,0,3.27.34,4.63,1.03,1.36.68,2.41,1.7,3.15,3.04l-2.63,1.69c-.62-.94-1.39-1.63-2.29-2.07-.9-.44-1.87-.67-2.9-.67-1.25,0-2.36.28-3.35.83-.98.55-1.76,1.33-2.34,2.32s-.86,2.18-.86,3.55.29,2.56.86,3.56c.58,1.01,1.36,1.79,2.34,2.34.98.55,2.1.83,3.35.83,1.03,0,2-.22,2.9-.67.9-.44,1.66-1.13,2.29-2.07l2.63,1.66c-.74,1.32-1.79,2.33-3.15,3.04-1.36.71-2.9,1.06-4.63,1.06Z"></path><path class="cls-2" d="M327.68,137.22c1.56,0,2.93.3,4.12.9,1.19.6,2.12,1.51,2.79,2.74.67,1.22,1.01,2.77,1.01,4.64v10.98h-3.46v-10.58c0-1.85-.45-3.24-1.35-4.18-.9-.94-2.17-1.4-3.8-1.4-1.22,0-2.29.24-3.2.72-.91.48-1.61,1.19-2.11,2.12-.49.94-.74,2.1-.74,3.49v9.83h-3.46v-26.71h3.46v12.78l-.68-1.37c.62-1.25,1.58-2.22,2.88-2.92s2.81-1.04,4.54-1.04Z"></path><path class="cls-2" d="M363.86,156.77c-1.92,0-3.76-.29-5.51-.88-1.75-.59-3.13-1.35-4.14-2.29l1.33-2.81c.96.84,2.18,1.54,3.67,2.09,1.49.55,3.04.83,4.64.83,1.46,0,2.65-.17,3.56-.5.91-.34,1.58-.8,2.02-1.39s.65-1.25.65-2c0-.86-.28-1.56-.85-2.09-.56-.53-1.3-.95-2.2-1.28-.9-.32-1.89-.61-2.97-.85s-2.17-.52-3.26-.85c-1.09-.32-2.09-.74-2.99-1.24-.9-.5-1.63-1.18-2.18-2.03-.55-.85-.83-1.95-.83-3.29s.34-2.49,1.03-3.58c.68-1.09,1.74-1.97,3.17-2.63,1.43-.66,3.25-.99,5.45-.99,1.46,0,2.92.19,4.36.58,1.44.38,2.69.94,3.74,1.66l-1.19,2.88c-1.08-.72-2.22-1.24-3.42-1.57s-2.36-.49-3.49-.49c-1.42,0-2.58.18-3.49.54-.91.36-1.58.84-2,1.44-.42.6-.63,1.27-.63,2.02,0,.89.28,1.6.85,2.12.56.53,1.3.95,2.2,1.26.9.31,1.89.59,2.97.85s2.17.53,3.26.85c1.09.31,2.09.72,2.99,1.22.9.5,1.63,1.18,2.18,2.02.55.84.83,1.92.83,3.24s-.35,2.45-1.04,3.55-1.77,1.97-3.22,2.63c-1.45.66-3.28.99-5.49.99Z"></path><path class="cls-2" d="M388.85,156.7c-1.94,0-3.68-.42-5.2-1.26s-2.72-1.99-3.58-3.46c-.86-1.46-1.3-3.14-1.3-5.04s.43-3.58,1.3-5.04c.86-1.46,2.06-2.61,3.58-3.44s3.26-1.24,5.2-1.24c1.73,0,3.27.34,4.63,1.03,1.36.68,2.41,1.7,3.15,3.04l-2.63,1.69c-.62-.94-1.39-1.63-2.29-2.07-.9-.44-1.87-.67-2.9-.67-1.25,0-2.36.28-3.35.83-.98.55-1.76,1.33-2.34,2.32s-.86,2.18-.86,3.55.29,2.56.86,3.56c.58,1.01,1.36,1.79,2.34,2.34.98.55,2.1.83,3.35.83,1.03,0,2-.22,2.9-.67.9-.44,1.66-1.13,2.29-2.07l2.63,1.66c-.74,1.32-1.79,2.33-3.15,3.04-1.36.71-2.9,1.06-4.63,1.06Z"></path><path class="cls-2" d="M413.18,137.22c1.56,0,2.93.3,4.12.9,1.19.6,2.12,1.51,2.79,2.74.67,1.22,1.01,2.77,1.01,4.64v10.98h-3.46v-10.58c0-1.85-.45-3.24-1.35-4.18-.9-.94-2.17-1.4-3.8-1.4-1.22,0-2.29.24-3.2.72-.91.48-1.61,1.19-2.11,2.12-.49.94-.74,2.1-.74,3.49v9.83h-3.46v-26.71h3.46v12.78l-.68-1.37c.62-1.25,1.58-2.22,2.88-2.92s2.81-1.04,4.54-1.04Z"></path><path class="cls-2" d="M437.84,156.7c-1.92,0-3.62-.42-5.11-1.26s-2.66-2-3.53-3.47c-.86-1.48-1.3-3.15-1.3-5.02s.43-3.58,1.3-5.04c.86-1.46,2.04-2.61,3.53-3.44s3.19-1.24,5.11-1.24,3.59.41,5.09,1.24,2.68,1.97,3.53,3.42c.85,1.45,1.28,3.14,1.28,5.06s-.43,3.58-1.28,5.04c-.85,1.46-2.03,2.62-3.53,3.46s-3.2,1.26-5.09,1.26ZM437.84,153.67c1.22,0,2.32-.28,3.29-.83.97-.55,1.73-1.34,2.29-2.36.55-1.02.83-2.2.83-3.55s-.28-2.55-.83-3.55c-.55-1-1.31-1.77-2.29-2.32-.97-.55-2.07-.83-3.29-.83s-2.32.28-3.28.83c-.96.55-1.73,1.33-2.3,2.32s-.86,2.18-.86,3.55.29,2.53.86,3.55c.58,1.02,1.34,1.81,2.3,2.36.96.55,2.05.83,3.28.83Z"></path><path class="cls-2" d="M462.86,156.7c-1.92,0-3.62-.42-5.11-1.26s-2.66-2-3.53-3.47c-.86-1.48-1.3-3.15-1.3-5.02s.43-3.58,1.3-5.04c.86-1.46,2.04-2.61,3.53-3.44s3.19-1.24,5.11-1.24,3.59.41,5.09,1.24,2.68,1.97,3.53,3.42c.85,1.45,1.28,3.14,1.28,5.06s-.43,3.58-1.28,5.04c-.85,1.46-2.03,2.62-3.53,3.46s-3.2,1.26-5.09,1.26ZM462.86,153.67c1.22,0,2.32-.28,3.29-.83.97-.55,1.73-1.34,2.29-2.36.55-1.02.83-2.2.83-3.55s-.28-2.55-.83-3.55c-.55-1-1.31-1.77-2.29-2.32-.97-.55-2.07-.83-3.29-.83s-2.32.28-3.28.83c-.96.55-1.73,1.33-2.3,2.32s-.86,2.18-.86,3.55.29,2.53.86,3.55c.58,1.02,1.34,1.81,2.3,2.36.96.55,2.05.83,3.28.83Z"></path><path class="cls-2" d="M479.71,156.48v-26.71h3.46v26.71h-3.46Z"></path></g><g><path class="cls-1" d="M246.25,90.05c0-8.73,2.39-15.87,7.17-21.44,4.78-5.57,11.31-8.36,19.61-8.36s14.99,2.79,19.77,8.36c4.78,5.57,7.17,12.72,7.17,21.44v1.14c0,8.8-2.39,15.96-7.17,21.5-4.78,5.54-11.33,8.3-19.66,8.3s-14.94-2.77-19.71-8.33c-4.78-5.55-7.17-12.71-7.17-21.47v-1.14ZM259.39,91.18c0,5.73,1.12,10.38,3.35,13.95,2.23,3.57,5.7,5.35,10.38,5.35s8.01-1.79,10.3-5.38c2.29-3.59,3.43-8.23,3.43-13.93v-1.14c0-5.59-1.14-10.19-3.43-13.82-2.29-3.62-5.76-5.43-10.41-5.43s-8,1.81-10.25,5.43c-2.25,3.63-3.38,8.23-3.38,13.82v1.14Z"></path><path class="cls-1" d="M442.99,61.33l.76,8.44c1.91-2.99,4.32-5.33,7.22-7,2.9-1.68,6.18-2.52,9.82-2.52,6.09,0,10.84,1.88,14.25,5.63,3.41,3.75,5.11,9.61,5.11,17.58v36.4h-13.14v-36.29c0-4.54-.88-7.77-2.65-9.68-1.77-1.91-4.43-2.87-8-2.87-4.33,0-7.09,2.24-8.92,4.7-1.87,2.51-3.3,7.21-3.3,10.34v33.8s-13.14,0-13.14,0v-58.52h12.01Z"></path><path class="cls-1" d="M526.71,103.84c0-2.02-.86-3.69-2.57-5-1.71-1.31-4.95-2.5-9.71-3.54-6.89-1.41-12.15-3.48-15.79-6.22-3.64-2.74-5.46-6.42-5.46-11.03,0-4.9,2.07-9.09,6.22-12.58,4.15-3.48,9.61-5.22,16.39-5.22s12.63,1.79,16.9,5.38c4.27,3.59,6.32,7.91,6.14,12.95l-.11.32h-12.6c0-2.38-.94-4.44-2.81-6.19-1.88-1.75-4.38-2.62-7.52-2.62s-5.59.72-7.25,2.16c-1.66,1.44-2.49,3.21-2.49,5.3s.77,3.57,2.32,4.76c1.55,1.19,4.74,2.25,9.57,3.19,7.17,1.44,12.58,3.56,16.23,6.36,3.64,2.79,5.46,6.54,5.46,11.22,0,5.26-2.17,9.56-6.52,12.9-4.35,3.33-10.07,5-17.17,5-7.61,0-13.61-1.95-18.01-5.84-4.4-3.89-6.49-8.37-6.27-13.41l.11-.32h12.22c.14,3.39,1.37,5.86,3.68,7.41,2.31,1.55,5.12,2.32,8.44,2.32s5.96-.67,7.82-2c1.86-1.33,2.78-3.1,2.78-5.3Z"></path><path class="cls-1" d="M549,90.05c0-8.73,2.39-15.87,7.17-21.44,4.78-5.57,11.31-8.36,19.61-8.36s14.99,2.79,19.77,8.36c4.78,5.57,7.17,12.72,7.17,21.44v1.14c0,8.8-2.39,15.96-7.17,21.5-4.78,5.54-11.33,8.3-19.66,8.3s-14.94-2.77-19.71-8.33c-4.78-5.55-7.17-12.71-7.17-21.47v-1.14ZM562.14,91.18c0,5.73,1.12,10.38,3.35,13.95,2.23,3.57,5.7,5.35,10.38,5.35s8.01-1.79,10.3-5.38c2.29-3.59,3.43-8.23,3.43-13.93v-1.14c0-5.59-1.14-10.19-3.43-13.82-2.29-3.62-5.76-5.43-10.41-5.43s-8,1.81-10.25,5.43c-2.25,3.63-3.38,8.23-3.38,13.82v1.14Z"></path><path class="cls-1" d="M333.69,61.33h-10.84v-6.82c0-3.03.71-5.35,2.14-6.98,1.42-1.62,3.56-2.43,6.41-2.43.81,0,1.56.06,2.29.13v-10.58s-.05,0-.08-.01c-1.3-.2-2.58-.3-3.84-.3-6.35,0-11.28,1.75-14.79,5.25-3.52,3.5-5.27,8.47-5.27,14.93v65.34h13.14v-48.78h10.84v-9.74Z"></path><path class="cls-1" d="M365.21,61.33h-10.86v-6.82c0-3.03.71-5.35,2.14-6.98,1.42-1.62,3.56-2.43,6.41-2.43.82,0,1.58.06,2.32.13v-10.58s-.07-.01-.1-.02c-1.3-.2-2.58-.3-3.84-.3-6.35,0-11.28,1.75-14.79,5.25-3.52,3.5-5.27,8.47-5.27,14.93v65.34h13.14v-48.78h10.86v-9.74Z"></path><path class="cls-1" d="M402.62,110.28c-1.24.13-2.54.22-3.92.22-4.8,0-8.38-1.5-10.76-4.49-2.38-2.99-3.64-6.89-3.78-11.68l.11-.27h36.18v-7.09c0-8.11-2.02-14.59-6.06-19.44-4.04-4.85-9.99-7.28-17.85-7.28-7.61-.04-13.82,2.73-18.63,8.3-4.81,5.57-7.22,12.65-7.22,21.23v2.16c0,8.58,2.41,15.57,7.22,20.96,4.81,5.39,11.49,8.08,20.04,8.08,1.63,0,3.18-.11,4.68-.26v-10.45ZM388.31,74.5c2.06-2.47,4.8-3.7,8.22-3.7,3.79,0,6.55,1.16,8.3,3.49,1.75,2.33,2.62,5.36,2.62,9.11v1.03h-22.88l-.11-.27c.51-3.97,1.78-7.18,3.84-9.65Z"></path></g><g><g><path class="cls-2" d="M36.28,154.91c-5.02,0-9.9-2.6-12.6-7.24l-.16-.29c-16.86-30.6-15.93-68.04,2.44-97.72,8.16-13.19,18.99-23.92,32.18-31.89l5.25,8.69c-11.8,7.13-21.49,16.73-28.8,28.54-16.45,26.59-17.28,60.13-2.15,87.53l.07.13c1.23,2.03,3.88,2.71,5.94,1.51,2.05-1.19,2.79-3.75,1.68-5.84l-.07-.13c-13.54-24.62-12.79-54.71,1.99-78.59,3.08-4.98,6.7-9.6,10.78-13.73l7.23,7.12c-3.54,3.59-6.69,7.61-9.37,11.94-12.89,20.82-13.51,47.08-1.63,68.53l.26.51c3.37,6.85.9,15.11-5.76,18.97-2.29,1.33-4.79,1.96-7.26,1.96Z"></path><circle class="cls-2" cx="56.45" cy="49.43" r="5.07"></circle><circle class="cls-2" cx="60.71" cy="22.16" r="5.07"></circle></g><g><path class="cls-2" d="M191.78,133.15c2.6,4.29,2.91,9.82.34,14.53l-.17.28c-17.43,30.28-49.93,48.89-84.83,48.56-15.51-.14-30.3-3.84-43.95-10.99l4.71-8.99c12.21,6.4,25.45,9.7,39.33,9.83,31.26.29,60.37-16.39,75.97-43.53l.07-.12c1.09-2.11.31-4.72-1.79-5.87-2.08-1.14-4.65-.44-5.87,1.6l-.08.13c-14.03,24.34-40.16,39.3-68.24,39.04-5.85-.05-11.68-.76-17.32-2.1l2.34-9.87c4.91,1.16,9.98,1.78,15.07,1.83,24.49.23,47.26-12.85,59.45-34.12l.3-.49c4.11-6.43,12.46-8.6,19.21-4.9,2.32,1.27,4.16,3.08,5.44,5.2Z"></path><circle class="cls-2" cx="91.13" cy="170.59" r="5.07" transform="translate(-88.62 99.22) rotate(-40.23)"></circle><circle class="cls-2" cx="65.59" cy="181.08" r="5.07" transform="translate(-101.44 85.21) rotate(-40.23)"></circle></g><g><path class="cls-2" d="M93.97,11.29c2.42-4.39,7.05-7.42,12.42-7.54h.33c34.94,0,67.28,18.88,84.41,49.29,7.61,13.52,11.79,28.17,12.4,43.57l-10.14.4c-.55-13.77-4.29-26.89-11.1-38.99-15.35-27.24-44.33-44.14-75.63-44.12h-.14c-2.37.1-4.24,2.09-4.19,4.47.05,2.37,1.94,4.25,4.31,4.29h.15c28.1.02,54.09,15.2,67.88,39.66,2.87,5.1,5.17,10.5,6.82,16.06l-9.73,2.9c-1.44-4.83-3.44-9.53-5.94-13.97-12.02-21.33-34.72-34.55-59.23-34.49l-.57-.02c-7.63-.35-13.67-6.51-13.83-14.2-.06-2.64.6-5.14,1.79-7.3Z"></path><circle class="cls-2" cx="176.63" cy="79.85" r="5.07" transform="translate(27 203.07) rotate(-63.8)"></circle><circle class="cls-2" cx="198.46" cy="96.74" r="5.07" transform="translate(24.03 232.1) rotate(-63.8)"></circle></g></g><rect class="cls-2" x="479.71" y="153.31" width="122.99" height="3.46"></rect><g><polygon class="cls-1" points="154.2 108.47 154.19 94.16 114.4 118.81 126.1 125.89 154.2 108.47"></polygon><polygon class="cls-1" points="88.21 131.17 77.96 124.65 126.14 69.12 136.34 75.67 88.21 131.17"></polygon><polygon class="cls-1" points="60.85 90.03 60.86 104.33 100.65 79.68 88.95 72.6 60.85 90.03"></polygon><polygon class="cls-1" points="136.87 84.13 128.09 94.06 142.54 101.33 154.2 94.19 136.87 84.13"></polygon><polygon class="cls-1" points="87.36 104.91 72.51 97.16 60.85 104.31 78.97 114.41 87.36 104.91"></polygon></g></svg>